<?xml version="1.0" encoding="UTF-8"?>
<svg width="32" height="32" viewBox="0 0 32 32" fill="none" xmlns="http://www.w3.org/2000/svg">
  <!-- Trophy Cup -->
  <path d="M16 3C12 3 8.5 4 8.5 4L8 20C8 23.3137 11.6863 26 16 26C20.3137 26 24 23.3137 24 20L23.5 4C23.5 4 20 3 16 3Z" fill="#FFB319"/>
  
  <!-- Trophy Handles -->
  <path d="M24 8H28C28 12 26 14 24 14.5M8 8H4C4 12 6 14 8 14.5" stroke="#FFB319" stroke-width="2" stroke-linecap="round"/>
  
  <!-- Base -->
  <path d="M12 26H20V29H12V26Z" fill="#FFB319"/>
  <rect x="10" y="29" width="12" height="2" fill="#FFB319"/>
  
  <!-- Shine Effect -->
  <path d="M14 8C14 8 15 10 16 10C17 10 18 8 18 8" stroke="#FFF" stroke-width="1.5" stroke-linecap="round" opacity="0.5"/>
</svg>
