<?xml version="1.0" encoding="UTF-8"?>
<svg width="512" height="512" viewBox="0 0 24 24" fill="none" xmlns="http://www.w3.org/2000/svg">
  <!-- Trophy base -->
  <path d="M7 21V19H17V21H7Z" fill="var(--accent)" opacity="0.8"/>
  
  <!-- Trophy cup -->
  <path d="M17 4V10.59C17 11.48 16.7 12.34 16.17 13.04L14.29 15.37C13.47 16.39 12.26 17 11 17C9.74 17 8.53 16.39 7.71 15.37L5.83 13.04C5.3 12.34 5 11.48 5 10.59V4H17Z" fill="var(--accent)"/>
  
  <!-- Trophy handles -->
  <path d="M5 4H3V10C3 11.1 3.9 12 5 12V4ZM19 4H17V12C18.1 12 19 11.1 19 10V4Z" fill="var(--accent)" opacity="0.9"/>
  
  <!-- Trophy rim highlight -->
  <path d="M17 2H5V4H17V2Z" fill="var(--accent)" opacity="0.95"/>
  
  <!-- Style tag for CSS variables -->
  <style>
    :root {
      --accent: #6366f1;
    }
    @media (prefers-color-scheme: dark) {
      :root {
        --accent: #818cf8;
      }
    }
  </style>
</svg>
